<svg width="72" height="54" viewBox="0 0 72 54" fill="none" xmlns="http://www.w3.org/2000/svg">
<g filter="url(#filter0_d_209_234)">
<path d="M35.5 1.35352C31.4829 1.35352 27.6303 2.9493 24.7898 5.78982C21.9493 8.63033 20.3535 12.4829 20.3535 16.5C20.3535 20.5171 21.9493 24.3697 24.7898 27.2102C27.6303 30.0507 31.4829 31.6465 35.5 31.6465C37.4891 31.6465 39.4587 31.2547 41.2963 30.4935C43.134 29.7323 44.8037 28.6167 46.2102 27.2102C47.6167 25.8037 48.7323 24.134 49.4935 22.2963C50.2547 20.4587 50.6465 18.4891 50.6465 16.5C50.6465 14.5109 50.2547 12.5413 49.4935 10.7037C48.7323 8.86604 47.6167 7.1963 46.2102 5.78982C44.8037 4.38334 43.134 3.26766 41.2963 2.50647C39.4587 1.74529 37.4891 1.35352 35.5 1.35352ZM35.5 6.63867C40.9394 6.63867 45.3613 11.0606 45.3613 16.5C45.3613 21.9394 40.9394 26.3613 35.5 26.3613C30.0606 26.3613 25.6387 21.9394 25.6387 16.5C25.6387 11.0606 30.0606 6.63867 35.5 6.63867ZM35.5 7.79883C34.1841 7.79883 32.9375 8.09016 31.8204 8.61107C32.5646 10.7303 33.8383 13.4062 35.5 13.4062C37.1644 13.4062 38.3956 10.7218 39.1578 8.60095C38.0462 8.08642 36.8074 7.79883 35.5 7.79883ZM41.8649 10.5626C40.0786 11.9253 37.9241 13.9651 38.4379 15.5465C38.9523 17.1298 41.8867 17.471 44.1394 17.5405C44.1798 17.1993 44.2012 16.8522 44.2012 16.5C44.2012 14.2028 43.3146 12.1164 41.8649 10.5626ZM29.1206 10.5782C27.6795 12.1303 26.7988 14.2104 26.7988 16.5C26.7988 16.8577 26.8207 17.2101 26.8625 17.5564C29.1076 17.5032 32.0433 17.1186 32.5566 15.539C33.0705 13.9572 30.9014 11.9584 29.1206 10.5782ZM33.6445 13.3912C33.5276 13.3945 33.4145 13.433 33.3199 13.5016C33.1955 13.5921 33.1121 13.7282 33.088 13.8802C33.064 14.0321 33.1013 14.1874 33.1917 14.3118C33.2821 14.4363 33.4182 14.5197 33.5702 14.5438C33.7221 14.5679 33.8774 14.5307 34.0019 14.4403C34.0635 14.3955 34.1157 14.339 34.1555 14.2741C34.1953 14.2091 34.222 14.137 34.2339 14.0617C34.2458 13.9865 34.2428 13.9096 34.225 13.8355C34.2072 13.7615 34.175 13.6916 34.1302 13.63C34.0748 13.5537 34.0016 13.492 33.9169 13.4504C33.8323 13.4088 33.7387 13.3885 33.6445 13.3912ZM37.3555 13.3912C37.3419 13.3908 37.3282 13.3909 37.3145 13.3914C37.2272 13.3951 37.1418 13.4185 37.0648 13.4598C36.9878 13.5011 36.9211 13.5592 36.8698 13.6299C36.825 13.6915 36.7928 13.7614 36.775 13.8355C36.7572 13.9096 36.7542 13.9864 36.7661 14.0617C36.778 14.1369 36.8046 14.2091 36.8445 14.2741C36.8843 14.339 36.9365 14.3955 36.9981 14.4403C37.1226 14.5307 37.2779 14.5679 37.4298 14.5438C37.5818 14.5198 37.7179 14.4363 37.8083 14.3119C37.8987 14.1874 37.936 14.0322 37.912 13.8802C37.8879 13.7283 37.8045 13.5921 37.6801 13.5017C37.5855 13.433 37.4724 13.3945 37.3555 13.3912ZM35.5 14.4375C34.953 14.4375 34.4284 14.6548 34.0416 15.0416C33.6548 15.4284 33.4375 15.953 33.4375 16.5C33.4375 17.047 33.6548 17.5716 34.0416 17.9584C34.4284 18.3452 34.953 18.5625 35.5 18.5625C36.047 18.5625 36.5716 18.3452 36.9584 17.9584C37.3452 17.5716 37.5625 17.047 37.5625 16.5C37.5625 15.953 37.3452 15.4284 36.9584 15.0416C36.5716 14.6548 36.047 14.4375 35.5 14.4375ZM32.516 16.8891C32.4579 16.8899 32.4003 16.8995 32.3451 16.9175C32.2726 16.941 32.2055 16.9786 32.1476 17.028C32.0896 17.0775 32.042 17.1379 32.0074 17.2058C31.9728 17.2737 31.9519 17.3477 31.9459 17.4236C31.94 17.4996 31.949 17.576 31.9725 17.6484C32.0201 17.7947 32.1238 17.9162 32.2609 17.986C32.3979 18.0558 32.5571 18.0684 32.7034 18.0208C32.7759 17.9973 32.843 17.9597 32.9009 17.9103C32.9589 17.8608 33.0065 17.8004 33.0411 17.7325C33.0757 17.6647 33.0966 17.5907 33.1026 17.5147C33.1085 17.4388 33.0995 17.3624 33.076 17.2899C33.0377 17.1721 32.9627 17.0696 32.8619 16.9974C32.7611 16.9253 32.6399 16.8873 32.516 16.8891ZM38.5009 16.8896C38.3742 16.8841 38.2492 16.9203 38.145 16.9926C38.0408 17.0648 37.9632 17.1693 37.924 17.2899C37.9005 17.3623 37.8915 17.4387 37.8974 17.5146C37.9034 17.5906 37.9243 17.6646 37.9589 17.7325C37.9935 17.8004 38.0411 17.8607 38.0991 17.9102C38.157 17.9597 38.2241 17.9972 38.2966 18.0208C38.4429 18.0683 38.602 18.0558 38.7391 17.986C38.8762 17.9161 38.9799 17.7947 39.0275 17.6484C39.051 17.576 39.06 17.4996 39.0541 17.4236C39.0481 17.3477 39.0272 17.2737 38.9926 17.2058C38.958 17.1379 38.9104 17.0775 38.8524 17.028C38.7945 16.9786 38.7274 16.941 38.6549 16.9175C38.6051 16.9013 38.5532 16.8919 38.5009 16.8896ZM32.562 18.6758C31.1704 18.6825 29.3238 19.7607 27.894 20.7337C29.1205 22.9359 31.2752 24.547 33.8329 25.0415C34.4768 22.8894 35.0201 19.9743 33.6753 18.9973C33.3624 18.77 32.9832 18.6737 32.562 18.6758ZM38.4282 18.6771C38.0041 18.6771 37.6231 18.7748 37.3102 19.0021C35.9635 19.9805 36.5456 22.8761 37.1757 25.0399C39.7336 24.5427 41.8877 22.9284 43.1118 20.7233C41.6934 19.7421 39.8289 18.6771 38.4282 18.677V18.6771ZM35.5 19.0511C35.3462 19.0511 35.1986 19.1122 35.0898 19.221C34.981 19.3297 34.9199 19.4773 34.9199 19.6311C34.9199 19.785 34.981 19.9325 35.0898 20.0413C35.1986 20.1501 35.3462 20.2112 35.5 20.2112C35.6538 20.2112 35.8014 20.1501 35.9102 20.0413C36.019 19.9325 36.0801 19.785 36.0801 19.6311C36.0801 19.4773 36.019 19.3297 35.9102 19.221C35.8014 19.1122 35.6538 19.0511 35.5 19.0511Z" fill="white"/>
<path d="M4.044 45H5.34V38.352H5.388C5.46 38.64 5.616 38.916 5.736 39.108L9.24 45H10.836V36.72H9.528V43.296H9.48C9.408 43.08 9.264 42.852 9.156 42.66L5.616 36.72H4.044V45ZM17.8468 41.82C17.8468 40.212 17.0188 38.736 15.1708 38.736C13.2988 38.736 12.3388 40.212 12.3388 41.964C12.3388 43.74 13.4068 45.12 15.3268 45.12C16.2028 45.12 16.9468 44.856 17.6668 44.16L16.8628 43.452C16.3948 43.872 15.9028 44.04 15.3508 44.04C14.2708 44.04 13.6708 43.428 13.5868 42.288H17.8108C17.8348 42.192 17.8468 42.024 17.8468 41.82ZM15.1468 39.804C16.1068 39.804 16.5628 40.476 16.6108 41.34L13.5868 41.328C13.6948 40.344 14.2708 39.804 15.1468 39.804ZM24.3644 38.856H23.1164V42.42C23.1164 43.308 22.5284 43.956 21.6164 43.956C20.8724 43.956 20.4164 43.524 20.4164 42.624V38.856H19.1684V42.864C19.1684 44.208 19.9244 45.12 21.2444 45.12C22.0364 45.12 22.6604 44.76 23.0324 44.136H23.1284V45H24.3644V38.856ZM26.1656 45H27.4136V41.412C27.4136 40.536 27.7616 39.828 28.6736 39.828C29.4656 39.828 29.7656 40.344 29.7656 41.112V45H31.0136V41.412C31.0136 40.524 31.3736 39.828 32.2616 39.828C33.0656 39.828 33.3896 40.368 33.3896 41.124V45H34.6376V40.992C34.6376 39.624 33.9536 38.748 32.6576 38.736C31.7936 38.724 31.2656 39.108 30.8216 39.84H30.7856C30.4496 39.084 29.8616 38.736 29.1176 38.736C28.3136 38.736 27.7496 39.144 27.4376 39.696H27.4016V38.856H26.1656V45ZM40.8975 36.72H39.4695L38.1615 38.136H39.0855L40.8975 36.72ZM38.6175 38.736C37.4175 38.736 36.6615 39.192 36.0735 39.972L36.9615 40.584C37.3935 40.032 37.8735 39.768 38.6775 39.768C39.5415 39.768 40.0335 40.068 40.0455 40.8C38.7975 41.16 37.7655 41.4 37.0575 41.748C36.3495 42.096 35.9295 42.612 35.9295 43.392C35.9295 44.46 36.7215 45.132 37.9575 45.132C38.6175 45.132 39.5175 44.772 40.0455 44.256V45H41.1855V40.692C41.1855 39.36 40.0215 38.736 38.6175 38.736ZM38.0415 44.052C37.5855 44.052 37.2495 43.8 37.2495 43.332C37.2495 42.96 37.4895 42.708 37.8975 42.516C38.3775 42.288 39.2295 42.024 40.0455 41.76V43.032C39.4935 43.716 38.8095 44.052 38.0415 44.052ZM44.4634 45H45.5794V44.004H44.9434C44.3794 44.004 44.1754 43.764 44.1754 43.104V39.744H45.6754V38.856H44.1754V36.72H42.9274V38.856H42.0274V39.744H42.9274V43.392C42.9274 44.448 43.4434 45 44.4634 45ZM46.8727 37.956H48.2167V36.72H46.8727V37.956ZM46.9207 45H48.1687V38.856H46.9207V45ZM52.4493 45.132C53.7213 45.132 54.5853 44.508 54.9693 43.38L53.9613 43.008C53.7693 43.656 53.2293 44.1 52.4613 44.1C51.2853 44.1 50.8173 43.008 50.8173 41.952C50.8173 40.872 51.2853 39.756 52.4613 39.756C53.2053 39.756 53.7573 40.176 53.9493 40.86L55.0053 40.452C54.5973 39.384 53.7453 38.736 52.4373 38.736C50.5293 38.736 49.5693 40.2 49.5693 41.94C49.5693 43.644 50.5293 45.132 52.4493 45.132ZM58.7213 45.132C60.4373 45.132 61.7093 44.016 61.7093 41.952C61.7093 39.852 60.4373 38.736 58.7213 38.736C56.9933 38.736 55.7333 39.852 55.7333 41.952C55.7333 44.016 56.9933 45.132 58.7213 45.132ZM58.7333 44.052C57.6893 44.052 56.9933 43.404 56.9933 41.952C56.9933 40.464 57.6893 39.816 58.7333 39.816C59.7773 39.816 60.4853 40.464 60.4853 41.952C60.4853 43.404 59.7773 44.052 58.7333 44.052ZM65.108 45.132C66.5 45.132 67.568 44.424 67.568 43.176C67.568 41.94 66.572 41.604 65.552 41.352C64.688 41.136 63.836 40.968 63.896 40.416C63.92 39.96 64.448 39.696 65.156 39.732C65.9 39.768 66.356 40.092 66.704 40.512L67.364 39.792C66.932 39.264 66.2 38.736 65.06 38.736C63.74 38.736 62.732 39.348 62.732 40.572C62.732 41.796 63.812 42.084 64.82 42.312C65.672 42.516 66.368 42.66 66.356 43.296C66.344 43.896 65.708 44.148 65 44.124C64.112 44.1 63.524 43.608 63.248 43.14L62.492 43.86C62.984 44.592 64.016 45.132 65.108 45.132Z" fill="white"/>
</g>
<defs>
<filter id="filter0_d_209_234" x="0.0439453" y="0" width="71.5244" height="53.132" filterUnits="userSpaceOnUse" color-interpolation-filters="sRGB">
<feFlood flood-opacity="0" result="BackgroundImageFix"/>
<feColorMatrix in="SourceAlpha" type="matrix" values="0 0 0 0 0 0 0 0 0 0 0 0 0 0 0 0 0 0 127 0" result="hardAlpha"/>
<feOffset dy="4"/>
<feGaussianBlur stdDeviation="2"/>
<feComposite in2="hardAlpha" operator="out"/>
<feColorMatrix type="matrix" values="0 0 0 0 0 0 0 0 0 0 0 0 0 0 0 0 0 0 0.25 0"/>
<feBlend mode="normal" in2="BackgroundImageFix" result="effect1_dropShadow_209_234"/>
<feBlend mode="normal" in="SourceGraphic" in2="effect1_dropShadow_209_234" result="shape"/>
</filter>
</defs>
</svg>
